<svg width="35" height="48" viewBox="0 0 35 48" fill="none" xmlns="http://www.w3.org/2000/svg">
<path fill-rule="evenodd" clip-rule="evenodd" d="M25.0939 0H9.90609C7.41144 0 5.01897 0.967065 3.25498 2.68845C1.491 4.40984 0.5 6.74454 0.5 9.17895C0.5 11.6134 1.491 13.9481 3.25498 15.6694C3.59923 16.0054 3.96742 16.3126 4.35563 16.5895C3.96742 16.8664 3.59923 17.1736 3.25498 17.5095C1.491 19.2309 0.5 21.5656 0.5 24C0.5 26.4344 1.491 28.7691 3.25498 30.4905C3.59922 30.8264 3.9674 31.1336 4.3556 31.4105C3.9674 31.6874 3.59922 31.9946 3.25498 32.3306C1.491 34.0519 0.5 36.3867 0.5 38.8211C0.5 41.2555 1.491 43.5902 3.25498 45.3116C5.01897 47.0329 7.41144 48 9.90609 48C12.4007 48 14.7932 47.0329 16.5572 45.3116C18.3212 43.5902 19.3122 41.2555 19.3122 38.8211V31.2402C20.9557 32.4901 22.9884 33.179 25.0939 33.179C27.5886 33.179 29.981 32.2119 31.745 30.4905C33.509 28.7691 34.5 26.4344 34.5 24C34.5 21.5656 33.509 19.2309 31.745 17.5095C31.4008 17.1736 31.0326 16.8664 30.6444 16.5895C31.0326 16.3126 31.4008 16.0054 31.745 15.6694C33.509 13.9481 34.5 11.6134 34.5 9.17895C34.5 6.74454 33.509 4.40984 31.745 2.68845C29.981 0.967065 27.5886 0 25.0939 0ZM19.3122 24.0081C19.3144 25.5016 19.9233 26.9334 21.0056 27.9896C22.0899 29.0477 23.5605 29.6421 25.0939 29.6421C26.6273 29.6421 28.0979 29.0477 29.1822 27.9896C30.2665 26.9315 30.8756 25.4964 30.8756 24C30.8756 22.5036 30.2665 21.0685 29.1822 20.0104C28.0979 18.9523 26.6273 18.3579 25.0939 18.3579C23.5605 18.3579 22.0899 18.9523 21.0056 20.0104C19.9233 21.0666 19.3144 22.4985 19.3122 23.9919V24.0081ZM15.6878 33.179H9.90609C9.90358 33.179 9.90107 33.179 9.89857 33.179C8.36787 33.1809 6.9003 33.7751 5.81779 34.8315C4.73351 35.8896 4.12437 37.3247 4.12437 38.8211C4.12437 40.3174 4.73351 41.7525 5.81779 42.8106C6.90208 43.8687 8.37268 44.4632 9.90609 44.4632C11.4395 44.4632 12.9101 43.8687 13.9944 42.8106C15.0787 41.7525 15.6878 40.3174 15.6878 38.8211V33.179ZM9.89768 29.6421C9.90048 29.6421 9.90329 29.6421 9.90609 29.6421L15.6878 29.6421V24.0103C15.6878 24.0069 15.6878 24.0035 15.6878 24C15.6878 23.9966 15.6878 23.9931 15.6878 23.9897V18.3579H9.90609C8.37268 18.3579 6.90208 18.9523 5.81779 20.0104C4.73351 21.0685 4.12437 22.5036 4.12437 24C4.12437 25.4964 4.73351 26.9315 5.81779 27.9896C6.90009 29.0458 8.3673 29.64 9.89768 29.6421ZM25.0939 14.821H19.3122V3.53684H25.0939C26.6273 3.53684 28.0979 4.13128 29.1822 5.18938C30.2665 6.24748 30.8756 7.68257 30.8756 9.17895C30.8756 10.6753 30.2665 12.1104 29.1822 13.1685C28.0979 14.2266 26.6273 14.821 25.0939 14.821ZM9.90609 3.53684H15.6878V14.821H9.90609C8.37268 14.821 6.90208 14.2266 5.81779 13.1685C4.73351 12.1104 4.12437 10.6753 4.12437 9.17895C4.12437 7.68257 4.73351 6.24748 5.81779 5.18938C6.90208 4.13128 8.37268 3.53684 9.90609 3.53684Z" fill="white"/>
</svg>
