<svg width="48" height="48" viewBox="0 0 48 48" fill="none" xmlns="http://www.w3.org/2000/svg">
<path d="M33.5999 29.6C33.5999 34.902 29.3019 39.2 23.9999 39.2C18.6979 39.2 14.3999 34.902 14.3999 29.6C14.3999 24.298 18.6979 20 23.9999 20C29.3019 20 33.5999 24.298 33.5999 29.6Z" fill="#FAD338" stroke="#1E3050" stroke-width="2.6" stroke-linecap="round" stroke-linejoin="round"/>
<path d="M24 24.8008L24 34.4008" stroke="#1E3050" stroke-width="2.6" stroke-linecap="round"/>
<path d="M28.7998 29.6006H19.1998" stroke="#1E3050" stroke-width="2.6" stroke-linecap="round"/>
<path d="M1.64022 7.89518C1.25756 4.5528 3.64451 1.60059 6.72956 1.60059H41.2701C44.3552 1.60059 46.7421 4.5528 46.3595 7.89518C46.0387 10.6976 43.8568 12.8006 41.2701 12.8006H6.72956C4.14291 12.8006 1.96105 10.6976 1.64022 7.89518Z" stroke="#1E3050" stroke-width="2.6"/>
<path d="M1.59985 7.2002L4.62536 44.1958C4.72721 45.4413 5.76774 46.4002 7.01737 46.4002H40.9823C42.232 46.4002 43.2725 45.4413 43.3744 44.1958L46.3999 7.2002" stroke="#1E3050" stroke-width="2.6"/>
</svg>
