<svg width="49" height="50" viewBox="0 0 49 50" fill="none" xmlns="http://www.w3.org/2000/svg">
<path d="M1.66748 8.20078C1.66748 6.8753 2.742 5.80078 4.06748 5.80078H44.0675C45.393 5.80078 46.4675 6.8753 46.4675 8.20078V45.8008C46.4675 47.1263 45.393 48.2008 44.0675 48.2008H4.06748C2.742 48.2008 1.66748 47.1263 1.66748 45.8008V8.20078Z" stroke="#1E3050" stroke-width="2.6" stroke-linecap="round" stroke-linejoin="round"/>
<path d="M14.7334 1.80078V9.80078" stroke="#1E3050" stroke-width="2.6" stroke-linecap="round" stroke-linejoin="round"/>
<path d="M33.9331 1.80078V9.80078" stroke="#1E3050" stroke-width="2.6" stroke-linecap="round" stroke-linejoin="round"/>
<path d="M46.4675 13.0008H1.66748V8.20078C1.66748 6.8753 2.742 5.80078 4.06748 5.80078H44.0675C45.393 5.80078 46.4675 6.8753 46.4675 8.20078V13.0008Z" fill="#FAD338" stroke="#1E3050" stroke-width="2.6" stroke-linejoin="round"/>
<path d="M20.2188 36.1584C18.9612 36.1584 18.0012 35.7024 17.3388 34.7904C16.6764 33.8688 16.3452 32.568 16.3452 30.888C16.3452 29.1984 16.6764 27.912 17.3388 27.0288C18.0012 26.136 18.9612 25.6896 20.2188 25.6896C21.4764 25.6896 22.4364 26.136 23.0988 27.0288C23.7612 27.912 24.0924 29.1936 24.0924 30.8736C24.0924 32.5632 23.7612 33.8688 23.0988 34.7904C22.4364 35.7024 21.4764 36.1584 20.2188 36.1584ZM20.2188 34.056C20.6796 34.056 21.0204 33.8064 21.2412 33.3072C21.4716 32.7984 21.5868 31.9872 21.5868 30.8736C21.5868 29.7696 21.4716 28.9824 21.2412 28.512C21.0204 28.032 20.6796 27.792 20.2188 27.792C19.758 27.792 19.4124 28.032 19.182 28.512C18.9612 28.9824 18.8508 29.7696 18.8508 30.8736C18.8508 31.9872 18.9612 32.7984 19.182 33.3072C19.4124 33.8064 19.758 34.056 20.2188 34.056ZM25.8292 36V33.8544H28.09V28.7424L26.3764 29.7216L25.4116 27.8064L28.8676 25.848H30.7252V33.8544H32.842V36H25.8292Z" fill="#1E3050"/>
</svg>
