<svg width="138" height="30" viewBox="0 0 138 30" fill="none" xmlns="http://www.w3.org/2000/svg">
<g clip-path="url(#clip0_384_248)">
<path d="M41.318 21.4861C40.058 21.4861 38.954 21.2101 38.006 20.6581C37.07 20.1061 36.332 19.3441 35.792 18.3721C35.264 17.3881 35 16.2541 35 14.9701C35 13.6861 35.264 12.5581 35.792 11.5861C36.332 10.6021 37.07 9.83406 38.006 9.28206C38.954 8.73006 40.058 8.45406 41.318 8.45406C42.566 8.45406 43.664 8.73006 44.612 9.28206C45.56 9.83406 46.298 10.6021 46.826 11.5861C47.354 12.5581 47.618 13.6861 47.618 14.9701C47.618 16.2541 47.354 17.3881 46.826 18.3721C46.298 19.3441 45.56 20.1061 44.612 20.6581C43.664 21.2101 42.566 21.4861 41.318 21.4861ZM41.318 19.4161C42.518 19.4161 43.472 19.0201 44.18 18.2281C44.9 17.4361 45.26 16.3501 45.26 14.9701C45.26 13.5901 44.9 12.5041 44.18 11.7121C43.472 10.9201 42.518 10.5241 41.318 10.5241C40.118 10.5241 39.158 10.9201 38.438 11.7121C37.718 12.5041 37.358 13.5901 37.358 14.9701C37.358 16.3501 37.718 17.4361 38.438 18.2281C39.158 19.0201 40.118 19.4161 41.318 19.4161Z" fill="white"/>
<path d="M49.5983 25.2301V12.3421H51.6503L51.9023 13.6201C52.1903 13.2241 52.5683 12.8761 53.0363 12.5761C53.5163 12.2761 54.1343 12.1261 54.8903 12.1261C55.7303 12.1261 56.4803 12.3301 57.1403 12.7381C57.8003 13.1461 58.3223 13.7041 58.7063 14.4121C59.0903 15.1201 59.2823 15.9241 59.2823 16.8241C59.2823 17.7241 59.0903 18.5281 58.7063 19.2361C58.3223 19.9321 57.8003 20.4841 57.1403 20.8921C56.4803 21.2881 55.7303 21.4861 54.8903 21.4861C54.2183 21.4861 53.6303 21.3601 53.1263 21.1081C52.6223 20.8561 52.2143 20.5021 51.9023 20.0461V25.2301H49.5983ZM54.4043 19.4701C55.1363 19.4701 55.7423 19.2241 56.2223 18.7321C56.7023 18.2401 56.9423 17.6041 56.9423 16.8241C56.9423 16.0441 56.7023 15.4021 56.2223 14.8981C55.7423 14.3941 55.1363 14.1421 54.4043 14.1421C53.6603 14.1421 53.0483 14.3941 52.5683 14.8981C52.1003 15.3901 51.8663 16.0261 51.8663 16.8061C51.8663 17.5861 52.1003 18.2281 52.5683 18.7321C53.0483 19.2241 53.6603 19.4701 54.4043 19.4701Z" fill="white"/>
<path d="M65.6785 21.4861C64.7785 21.4861 63.9805 21.2941 63.2845 20.9101C62.5885 20.5261 62.0425 19.9861 61.6465 19.2901C61.2505 18.5941 61.0525 17.7901 61.0525 16.8781C61.0525 15.9541 61.2445 15.1321 61.6285 14.4121C62.0245 13.6921 62.5645 13.1341 63.2485 12.7381C63.9445 12.3301 64.7605 12.1261 65.6965 12.1261C66.5725 12.1261 67.3465 12.3181 68.0185 12.7021C68.6905 13.0861 69.2125 13.6141 69.5845 14.2861C69.9685 14.9461 70.1605 15.6841 70.1605 16.5001C70.1605 16.6321 70.1545 16.7701 70.1425 16.9141C70.1425 17.0581 70.1365 17.2081 70.1245 17.3641H63.3385C63.3865 18.0601 63.6265 18.6061 64.0585 19.0021C64.5025 19.3981 65.0365 19.5961 65.6605 19.5961C66.1285 19.5961 66.5185 19.4941 66.8305 19.2901C67.1545 19.0741 67.3945 18.7981 67.5505 18.4621H69.8905C69.7225 19.0261 69.4405 19.5421 69.0445 20.0101C68.6605 20.4661 68.1805 20.8261 67.6045 21.0901C67.0405 21.3541 66.3985 21.4861 65.6785 21.4861ZM65.6965 13.9981C65.1325 13.9981 64.6345 14.1601 64.2025 14.4841C63.7705 14.7961 63.4945 15.2761 63.3745 15.9241H67.8205C67.7845 15.3361 67.5685 14.8681 67.1725 14.5201C66.7765 14.1721 66.2845 13.9981 65.6965 13.9981Z" fill="white"/>
<path d="M72.0983 21.2701V12.3421H74.1323L74.3123 13.8541C74.5883 13.3261 74.9843 12.9061 75.5003 12.5941C76.0283 12.2821 76.6463 12.1261 77.3543 12.1261C78.4583 12.1261 79.3163 12.4741 79.9283 13.1701C80.5403 13.8661 80.8463 14.8861 80.8463 16.2301V21.2701H78.5423V16.4461C78.5423 15.6781 78.3863 15.0901 78.0743 14.6821C77.7623 14.2741 77.2763 14.0701 76.6163 14.0701C75.9683 14.0701 75.4343 14.2981 75.0143 14.7541C74.6063 15.2101 74.4023 15.8461 74.4023 16.6621V21.2701H72.0983Z" fill="white"/>
<path d="M87.4055 21.4861C86.4815 21.4861 85.6655 21.3301 84.9575 21.0181C84.2495 20.6941 83.6915 20.2381 83.2835 19.6501C82.8755 19.0501 82.6655 18.3241 82.6535 17.4721H85.0835C85.1075 18.0601 85.3175 18.5581 85.7135 18.9661C86.1215 19.3621 86.6795 19.5601 87.3875 19.5601C87.9995 19.5601 88.4855 19.4161 88.8455 19.1281C89.2055 18.8281 89.3855 18.4321 89.3855 17.9401C89.3855 17.4241 89.2235 17.0221 88.8995 16.7341C88.5875 16.4461 88.1675 16.2121 87.6395 16.0321C87.1115 15.8521 86.5475 15.6601 85.9475 15.4561C84.9755 15.1201 84.2315 14.6881 83.7155 14.1601C83.2115 13.6321 82.9595 12.9301 82.9595 12.0541C82.9475 11.3101 83.1215 10.6741 83.4815 10.1461C83.8535 9.60606 84.3575 9.19206 84.9935 8.90406C85.6295 8.60406 86.3615 8.45406 87.1895 8.45406C88.0295 8.45406 88.7675 8.60406 89.4035 8.90406C90.0515 9.20406 90.5555 9.62406 90.9155 10.1641C91.2875 10.7041 91.4855 11.3461 91.5095 12.0901H89.0435C89.0315 11.6461 88.8575 11.2561 88.5215 10.9201C88.1975 10.5721 87.7415 10.3981 87.1535 10.3981C86.6495 10.3861 86.2235 10.5121 85.8755 10.7761C85.5395 11.0281 85.3715 11.4001 85.3715 11.8921C85.3715 12.3121 85.5035 12.6481 85.7675 12.9001C86.0315 13.1401 86.3915 13.3441 86.8475 13.5121C87.3035 13.6801 87.8255 13.8601 88.4135 14.0521C89.0375 14.2681 89.6075 14.5201 90.1235 14.8081C90.6395 15.0961 91.0535 15.4801 91.3655 15.9601C91.6775 16.4281 91.8335 17.0341 91.8335 17.7781C91.8335 18.4381 91.6655 19.0501 91.3295 19.6141C90.9935 20.1781 90.4955 20.6341 89.8355 20.9821C89.1755 21.3181 88.3655 21.4861 87.4055 21.4861Z" fill="white"/>
<path d="M97.7677 21.2701C96.8317 21.2701 96.0817 21.0421 95.5177 20.5861C94.9537 20.1301 94.6717 19.3201 94.6717 18.1561V14.2681H93.1417V12.3421H94.6717L94.9417 9.94806H96.9757V12.3421H99.3877V14.2681H96.9757V18.1741C96.9757 18.6061 97.0657 18.9061 97.2457 19.0741C97.4377 19.2301 97.7617 19.3081 98.2177 19.3081H99.3337V21.2701H97.7677Z" fill="white"/>
<path d="M101.366 21.2701V12.3421H103.418L103.634 14.0161C103.958 13.4401 104.396 12.9841 104.948 12.6481C105.512 12.3001 106.172 12.1261 106.928 12.1261V14.5561H106.28C105.776 14.5561 105.326 14.6341 104.93 14.7901C104.534 14.9461 104.222 15.2161 103.994 15.6001C103.778 15.9841 103.67 16.5181 103.67 17.2021V21.2701H101.366Z" fill="white"/>
<path d="M112.628 21.4861C111.764 21.4861 110.984 21.2881 110.288 20.8921C109.604 20.4961 109.058 19.9501 108.65 19.2541C108.254 18.5461 108.056 17.7301 108.056 16.8061C108.056 15.8821 108.26 15.0721 108.668 14.3761C109.076 13.6681 109.622 13.1161 110.306 12.7201C111.002 12.3241 111.782 12.1261 112.646 12.1261C113.498 12.1261 114.266 12.3241 114.95 12.7201C115.646 13.1161 116.192 13.6681 116.588 14.3761C116.996 15.0721 117.2 15.8821 117.2 16.8061C117.2 17.7301 116.996 18.5461 116.588 19.2541C116.192 19.9501 115.646 20.4961 114.95 20.8921C114.254 21.2881 113.48 21.4861 112.628 21.4861ZM112.628 19.4881C113.228 19.4881 113.75 19.2661 114.194 18.8221C114.638 18.3661 114.86 17.6941 114.86 16.8061C114.86 15.9181 114.638 15.2521 114.194 14.8081C113.75 14.3521 113.234 14.1241 112.646 14.1241C112.034 14.1241 111.506 14.3521 111.062 14.8081C110.63 15.2521 110.414 15.9181 110.414 16.8061C110.414 17.6941 110.63 18.3661 111.062 18.8221C111.506 19.2661 112.028 19.4881 112.628 19.4881Z" fill="white"/>
<path d="M119.26 21.2701V8.31006H121.564V15.9601L124.732 12.3421H127.468L123.814 16.4101L128.062 21.2701H125.182L121.564 16.7881V21.2701H119.26Z" fill="white"/>
<path d="M133.091 21.4861C132.191 21.4861 131.393 21.2941 130.697 20.9101C130.001 20.5261 129.455 19.9861 129.059 19.2901C128.663 18.5941 128.465 17.7901 128.465 16.8781C128.465 15.9541 128.657 15.1321 129.041 14.4121C129.437 13.6921 129.977 13.1341 130.661 12.7381C131.357 12.3301 132.173 12.1261 133.109 12.1261C133.985 12.1261 134.759 12.3181 135.431 12.7021C136.103 13.0861 136.625 13.6141 136.997 14.2861C137.381 14.9461 137.573 15.6841 137.573 16.5001C137.573 16.6321 137.567 16.7701 137.555 16.9141C137.555 17.0581 137.549 17.2081 137.537 17.3641H130.751C130.799 18.0601 131.039 18.6061 131.471 19.0021C131.915 19.3981 132.449 19.5961 133.073 19.5961C133.541 19.5961 133.931 19.4941 134.243 19.2901C134.567 19.0741 134.807 18.7981 134.963 18.4621H137.303C137.135 19.0261 136.853 19.5421 136.457 20.0101C136.073 20.4661 135.593 20.8261 135.017 21.0901C134.453 21.3541 133.811 21.4861 133.091 21.4861ZM133.109 13.9981C132.545 13.9981 132.047 14.1601 131.615 14.4841C131.183 14.7961 130.907 15.2761 130.787 15.9241H135.233C135.197 15.3361 134.981 14.8681 134.585 14.5201C134.189 14.1721 133.697 13.9981 133.109 13.9981Z" fill="white"/>
<path fill-rule="evenodd" clip-rule="evenodd" d="M15 27.6923C17.549 27.6923 19.6154 25.6259 19.6154 23.0769L19.6154 21.9231L10.3846 21.9231L10.3846 23.0769C10.3846 25.6259 12.451 27.6923 15 27.6923ZM8.07693 21.9231L8.07693 23.0769C8.07693 26.9004 11.1765 30 15 30C18.8235 30 21.9231 26.9004 21.9231 23.0769L21.9231 21.9231L23.0769 21.9231C26.9004 21.9231 30 18.8235 30 15C30 11.1765 26.9004 8.07693 23.0769 8.07692L21.9231 8.07692L21.9231 6.92308C21.9231 3.09957 18.8235 9.30269e-07 15 5.96007e-07C11.1765 2.61745e-07 8.07693 3.09957 8.07693 6.92308L8.07693 8.07692L6.92308 8.07692C3.09957 8.07692 3.55295e-06 11.1765 3.21869e-06 15C2.88443e-06 18.8235 3.09957 21.9231 6.92308 21.9231L8.07693 21.9231ZM10.3846 19.6154L19.6154 19.6154L19.6154 10.3846L10.3846 10.3846L10.3846 19.6154ZM8.07693 10.3846L8.07693 19.6154L6.92308 19.6154C4.37407 19.6154 2.30769 17.549 2.30769 15C2.30769 12.451 4.37407 10.3846 6.92308 10.3846L8.07693 10.3846ZM10.3846 8.07692L19.6154 8.07692L19.6154 6.92308C19.6154 4.37407 17.549 2.30769 15 2.30769C12.451 2.30769 10.3846 4.37407 10.3846 6.92308L10.3846 8.07692ZM21.9231 10.3846L21.9231 19.6154L23.0769 19.6154C25.6259 19.6154 27.6923 17.549 27.6923 15C27.6923 12.451 25.6259 10.3846 23.0769 10.3846L21.9231 10.3846Z" fill="white"/>
<path fill-rule="evenodd" clip-rule="evenodd" d="M9.23075 8.07715C9.868 8.07715 10.3846 8.59374 10.3846 9.231C10.3846 9.86825 9.868 10.3848 9.23075 10.3848C8.5935 10.3848 8.0769 9.86825 8.0769 9.231C8.0769 8.59374 8.5935 8.07715 9.23075 8.07715ZM9.23075 19.6156C9.868 19.6156 10.3846 20.1322 10.3846 20.7695C10.3846 21.4067 9.868 21.9233 9.23075 21.9233C8.5935 21.9233 8.0769 21.4067 8.0769 20.7695C8.0769 20.1322 8.5935 19.6156 9.23075 19.6156ZM21.9231 9.231C21.9231 8.59374 21.4065 8.07715 20.7692 8.07715C20.132 8.07715 19.6154 8.59374 19.6154 9.231C19.6154 9.86825 20.132 10.3848 20.7692 10.3848C21.4065 10.3848 21.9231 9.86825 21.9231 9.231ZM20.7692 19.6156C21.4065 19.6156 21.9231 20.1322 21.9231 20.7695C21.9231 21.4067 21.4065 21.9233 20.7692 21.9233C20.132 21.9233 19.6154 21.4067 19.6154 20.7695C19.6154 20.1322 20.132 19.6156 20.7692 19.6156Z" fill="#1E3050"/>
</g>
<defs>
<clipPath id="clip0_384_248">
<rect width="137.75" height="30" fill="white"/>
</clipPath>
</defs>
</svg>
