<svg width="49" height="48" viewBox="0 0 49 48" fill="none" xmlns="http://www.w3.org/2000/svg">
<mask id="path-1-inside-1_293_660" fill="white">
<path d="M41.3036 7.02943C44.2825 10.0084 46.4249 13.719 47.5152 17.7883C48.6056 21.8577 48.6056 26.1423 47.5152 30.2116L24.333 24L41.3036 7.02943Z"/>
</mask>
<path d="M41.3036 7.02943C44.2825 10.0084 46.4249 13.719 47.5152 17.7883C48.6056 21.8577 48.6056 26.1423 47.5152 30.2116L24.333 24L41.3036 7.02943Z" fill="#FAD338" stroke="white" stroke-width="5.2" mask="url(#path-1-inside-1_293_660)"/>
<mask id="path-2-inside-2_293_660" fill="white">
<path d="M41.3036 7.02943C45.0394 10.7652 47.4381 15.6293 48.1277 20.8674C48.8173 26.1054 47.7592 31.4246 45.1176 36L24.333 24L41.3036 7.02943Z"/>
</mask>
<path d="M41.3036 7.02943C45.0394 10.7652 47.4381 15.6293 48.1277 20.8674C48.8173 26.1054 47.7592 31.4246 45.1176 36L24.333 24L41.3036 7.02943Z" fill="white" stroke="#1E3050" stroke-width="5.2" mask="url(#path-2-inside-2_293_660)"/>
<mask id="path-3-inside-3_293_660" fill="white">
<path d="M30.5447 47.1822C25.4415 48.5496 20.0297 48.1949 15.1486 46.1731C10.2675 44.1513 6.19001 40.5754 3.5484 36L24.333 24L30.5447 47.1822Z"/>
</mask>
<path d="M30.5447 47.1822C25.4415 48.5496 20.0297 48.1949 15.1486 46.1731C10.2675 44.1513 6.19001 40.5754 3.5484 36L24.333 24L30.5447 47.1822Z" stroke="#1E3050" stroke-width="5.2" mask="url(#path-3-inside-3_293_660)"/>
<mask id="path-4-inside-4_293_660" fill="white">
<path d="M1.15079 17.7883C2.51819 12.6851 5.53127 8.17574 9.72273 4.95952C13.9142 1.7433 19.0498 2.45624e-06 24.333 0L24.333 24L1.15079 17.7883Z"/>
</mask>
<path d="M1.15079 17.7883C2.51819 12.6851 5.53127 8.17574 9.72273 4.95952C13.9142 1.7433 19.0498 2.45624e-06 24.333 0L24.333 24L1.15079 17.7883Z" stroke="#1E3050" stroke-width="5.2" mask="url(#path-4-inside-4_293_660)"/>
<mask id="path-5-inside-5_293_660" fill="white">
<path d="M18.1214 0.81778C23.2246 -0.549617 28.6363 -0.19491 33.5174 1.82689C38.3985 3.84869 42.476 7.42459 45.1176 12L24.333 24L18.1214 0.81778Z"/>
</mask>
<path d="M18.1214 0.81778C23.2246 -0.549617 28.6363 -0.19491 33.5174 1.82689C38.3985 3.84869 42.476 7.42459 45.1176 12L24.333 24L18.1214 0.81778Z" fill="white" stroke="#1E3050" stroke-width="5.2" mask="url(#path-5-inside-5_293_660)"/>
<rect x="1.63301" y="1.3" width="45.4" height="45.4" rx="22.7" stroke="#1E3050" stroke-width="2.6"/>
<rect x="8.03291" y="7.70039" width="32.6" height="32.6" rx="16.3" fill="white" stroke="#1E3050" stroke-width="2.6"/>
<path d="M30.7332 35.0855C28.5408 36.3513 26.0222 36.9386 23.496 36.773C20.9699 36.6074 18.5495 35.6964 16.5411 34.1553C14.5326 32.6142 13.0263 30.5121 12.2125 28.1148C11.3987 25.7176 11.3141 23.1328 11.9694 20.6875L24.3332 24.0004L30.7332 35.0855Z" fill="#FAD338"/>
<path d="M30.0558 15.8963C30.882 15.0702 32.2215 15.0702 33.0477 15.8963C33.8739 16.7225 33.8739 18.0621 33.0477 18.8883L30.0558 21.8802L27.0639 18.8883L30.0558 15.8963Z" fill="white" stroke="#1E3050" stroke-width="2.6"/>
<path d="M28.5964 25.25C29.5172 26.1708 31.01 26.1708 31.9308 25.25C32.8516 24.3292 32.8516 22.8364 31.9308 21.9156L27.0285 17.0133C26.1078 16.0925 24.6149 16.0925 23.6941 17.0133C22.7733 17.9341 22.7733 19.427 23.6941 20.3477L28.5964 25.25Z" fill="white" stroke="#1E3050" stroke-width="2.6"/>
<path d="M24.7456 21.207L27.7375 24.1989L21.6209 30.3155C20.7947 31.1417 19.4552 31.1417 18.629 30.3155C17.8028 29.4893 17.8028 28.1498 18.629 27.3236L24.7456 21.207Z" fill="white" stroke="#1E3050" stroke-width="2.6"/>
</svg>
