<svg width="48" height="48" viewBox="0 0 48 48" fill="none" xmlns="http://www.w3.org/2000/svg">
<path d="M21 35C21 36.1046 20.1046 37 19 37C17.8954 37 17 36.1046 17 35C17 33.8954 17.8954 33 19 33C20.1046 33 21 33.8954 21 35Z" stroke="#1E3050" stroke-width="2"/>
<path d="M15 29C15 30.1046 14.1046 31 13 31C11.8954 31 11 30.1046 11 29C11 27.8954 11.8954 27 13 27C14.1046 27 15 27.8954 15 29Z" stroke="#1E3050" stroke-width="2"/>
<path d="M20 22C20 23.1046 19.1046 24 18 24C16.8954 24 16 23.1046 16 22C16 20.8954 16.8954 20 18 20C19.1046 20 20 20.8954 20 22Z" stroke="#1E3050" stroke-width="2"/>
<path d="M27 15C27 16.1046 26.1046 17 25 17C23.8954 17 23 16.1046 23 15C23 13.8954 23.8954 13 25 13C26.1046 13 27 13.8954 27 15Z" stroke="#1E3050" stroke-width="2"/>
<path d="M10.1435 10C6.95371 13.5158 5 18.246 5 23.4483C5 30.3978 8.48648 36.505 13.7487 40H34.2513C39.5135 36.505 43 30.3978 43 23.4483C43 18.246 41.0463 13.5158 37.8565 10H10.1435Z" stroke="#1E3050" stroke-width="2"/>
<path d="M5.82373 17.7053C21.4523 15.1653 28.949 18.3635 42.2254 17.8756" stroke="#1E3050" stroke-width="2"/>
<path d="M29.5 30C31.8502 30 33.9022 28.7934 35 27C33.9022 25.2066 31.8502 24 29.5 24C27.1498 24 25.0978 25.2066 24 27C25.0978 28.7934 27.1498 30 29.5 30Z" stroke="#1E3050" stroke-width="2"/>
<path d="M38 25L35.5 27L38 29V25Z" stroke="#1E3050" stroke-width="2"/>
</svg>
