<svg width="48" height="50" viewBox="0 0 48 50" fill="none" xmlns="http://www.w3.org/2000/svg">
<path d="M7.99985 48.1998H39.9999C41.3253 48.1998 42.3999 47.1253 42.3999 45.7998V12.9998L30.3999 1.7998H7.99985C6.67437 1.7998 5.59985 2.87432 5.59985 4.1998V45.7998C5.59985 47.1253 6.67437 48.1998 7.99985 48.1998Z" stroke="#1E3050" stroke-width="2.6" stroke-linecap="round" stroke-linejoin="round"/>
<path d="M5.59985 40.1992H42.3999" stroke="#1E3050" stroke-width="2.6" stroke-linecap="round" stroke-linejoin="round"/>
<path d="M15.8442 30.5226C15.2244 30.5226 14.6308 30.4479 14.0634 30.2986C13.4959 30.1418 13.0292 29.9365 12.6634 29.6826L13.2346 28.081C13.578 28.3125 13.9812 28.4954 14.4442 28.6298C14.9071 28.7642 15.3738 28.8314 15.8442 28.8314C16.337 28.8314 16.6804 28.7679 16.8746 28.641C17.0762 28.5066 17.177 28.3423 17.177 28.1482C17.177 27.9765 17.106 27.8383 16.9642 27.7338C16.8298 27.6293 16.5871 27.5397 16.2362 27.465L14.9258 27.185C13.5071 26.8789 12.7978 26.1359 12.7978 24.9562C12.7978 24.441 12.9359 23.9893 13.2122 23.601C13.4959 23.2127 13.8879 22.9141 14.3882 22.705C14.8884 22.4885 15.4708 22.3802 16.1354 22.3802C16.6804 22.3802 17.1956 22.4586 17.681 22.6154C18.1738 22.7647 18.5732 22.9701 18.8794 23.2314L18.3082 24.7322C18.0244 24.5231 17.6959 24.3626 17.3226 24.2506C16.9492 24.1311 16.546 24.0714 16.113 24.0714C15.6948 24.0714 15.3738 24.1461 15.1498 24.2954C14.9258 24.4373 14.8138 24.6239 14.8138 24.8554C14.8138 25.0197 14.881 25.1541 15.0154 25.2586C15.1498 25.3631 15.3887 25.4527 15.7322 25.5274L17.0314 25.8074C18.4724 26.1135 19.193 26.8378 19.193 27.9802C19.193 28.4954 19.0548 28.9434 18.7786 29.3242C18.5023 29.705 18.114 29.9999 17.6138 30.209C17.1135 30.4181 16.5236 30.5226 15.8442 30.5226ZM22.6728 30.3994L19.0776 22.5034H21.2728L23.5352 27.7562L25.7976 22.5034H27.9144L24.308 30.3994H22.6728ZM32.1886 30.5226C31.2852 30.5226 30.5161 30.3546 29.8814 30.0186C29.2542 29.6826 28.7764 29.2122 28.4478 28.6074C28.1193 28.0026 27.955 27.297 27.955 26.4906C27.955 25.6543 28.1268 24.9301 28.4702 24.3178C28.8212 23.6981 29.3214 23.2202 29.971 22.8842C30.6206 22.5482 31.4046 22.3802 32.323 22.3802C32.8756 22.3802 33.402 22.4549 33.9022 22.6042C34.4025 22.7461 34.8094 22.9402 35.123 23.1866L34.4958 24.777C34.1524 24.553 33.8052 24.3925 33.4542 24.2954C33.1033 24.1909 32.73 24.1386 32.3342 24.1386C31.5801 24.1386 31.0164 24.3402 30.643 24.7434C30.2772 25.1466 30.0942 25.729 30.0942 26.4906C30.0942 27.2522 30.2809 27.8271 30.6542 28.2154C31.0276 28.6037 31.5801 28.7978 32.3118 28.7978C32.6553 28.7978 33.0398 28.7455 33.4654 28.641V27.3978H31.8862V25.953H35.1454V29.9178C34.7273 30.1119 34.2606 30.2613 33.7454 30.3658C33.2302 30.4703 32.7113 30.5226 32.1886 30.5226Z" fill="#1E3050"/>
<path d="M30.3999 12.9998V1.7998L42.3999 12.9998H30.3999Z" fill="#FAD338" stroke="#1E3050" stroke-width="2.6" stroke-linecap="round" stroke-linejoin="round"/>
</svg>
