<svg width="49" height="52" viewBox="0 0 49 52" fill="none" xmlns="http://www.w3.org/2000/svg">
<path d="M24.6667 26C24.6667 23.8783 25.5096 21.8434 27.0099 20.3431C28.5102 18.8429 30.545 18 32.6667 18C34.7885 18 36.8233 18.8429 38.3236 20.3431C39.8239 21.8434 40.6667 23.8783 40.6667 26C40.6667 28.1217 39.8239 30.1566 38.3236 31.6569C36.8233 33.1571 34.7885 34 32.6667 34C30.545 34 28.5102 33.1571 27.0099 31.6569C25.5096 30.1566 24.6667 28.1217 24.6667 26V26Z" stroke="#1E3050" stroke-width="2.6"/>
<path d="M8.66675 42C8.66675 39.8783 9.5096 37.8434 11.0099 36.3431C12.5102 34.8429 14.545 34 16.6667 34H24.6667V42C24.6667 44.1217 23.8239 46.1566 22.3236 47.6569C20.8233 49.1571 18.7885 50 16.6667 50C14.545 50 12.5102 49.1571 11.0099 47.6569C9.5096 46.1566 8.66675 44.1217 8.66675 42V42Z" stroke="#1E3050" stroke-width="2.6"/>
<path d="M24.6667 2V18H32.6667C34.7885 18 36.8233 17.1571 38.3236 15.6569C39.8239 14.1566 40.6667 12.1217 40.6667 10C40.6667 7.87827 39.8239 5.84344 38.3236 4.34315C36.8233 2.84285 34.7885 2 32.6667 2L24.6667 2Z" stroke="#1E3050" stroke-width="2.6"/>
<path d="M8.66675 10C8.66675 12.1217 9.5096 14.1566 11.0099 15.6569C12.5102 17.1571 14.545 18 16.6667 18H24.6667V2H16.6667C14.545 2 12.5102 2.84285 11.0099 4.34315C9.5096 5.84344 8.66675 7.87827 8.66675 10H8.66675Z" stroke="#1E3050" stroke-width="2.6"/>
<path d="M8.66675 26C8.66675 28.1217 9.5096 30.1566 11.0099 31.6569C12.5102 33.1571 14.545 34 16.6667 34H24.6667V18H16.6667C14.545 18 12.5102 18.8429 11.0099 20.3431C9.5096 21.8434 8.66675 23.8783 8.66675 26H8.66675Z" stroke="#1E3050" stroke-width="2.6"/>
</svg>
