<svg width="49" height="48" viewBox="0 0 49 48" fill="none" xmlns="http://www.w3.org/2000/svg">
<path d="M24.6668 1.60059H4.66684C3.34136 1.60059 2.26685 2.6751 2.26685 4.00059V44.0006C2.26685 45.3261 3.34136 46.4006 4.66685 46.4006H44.6668C45.9923 46.4006 47.0668 45.3261 47.0668 44.0006V24.0006" stroke="#1E3050" stroke-width="2.6" stroke-linecap="round" stroke-linejoin="round"/>
<path d="M45.3698 8.70353L39.964 3.29764C39.0267 2.36038 37.5071 2.36038 36.5698 3.29764L14.6669 25.2006L13.0669 35.6006L23.4669 34.0006L45.3698 12.0976C46.3071 11.1604 46.3071 9.64079 45.3698 8.70353Z" stroke="#1E3050" stroke-width="2.6" stroke-linejoin="round"/>
<path d="M45.3696 8.70353L39.9638 3.29764C39.0265 2.36038 37.5069 2.36038 36.5696 3.29764L33.5638 6.30353C32.6265 7.24079 32.6265 8.76038 33.5638 9.69764L38.9696 15.1035C39.9069 16.0408 41.4265 16.0408 42.3638 15.1035L45.3696 12.0976C46.3069 11.1604 46.3069 9.64079 45.3696 8.70353Z" fill="#FAD338" stroke="#1E3050" stroke-width="2.6" stroke-linejoin="round"/>
</svg>
